<svg xmlns="http://www.w3.org/2000/svg" viewBox="0 0 1000 450">
  <!-- Background -->
  <rect width="1000" height="450" fill="white"/>
  
  <!-- Title -->
  <text x="500" y="30" font-family="Arial" font-size="20" text-anchor="middle" font-weight="bold">NumerosityCNNTransformer Architecture</text>
  
  <!-- Input -->
  <rect x="50" y="100" width="60" height="200" fill="#D6EAF8" stroke="#2980B9" stroke-width="2"/>
  <text x="80" y="310" font-family="Arial" font-size="12" text-anchor="middle">Input</text>
  <text x="80" y="325" font-family="Arial" font-size="10" text-anchor="middle">128×128×1</text>
  
  <!-- CNN Backbone Section -->
  <rect x="140" y="60" width="350" height="280" fill="none" stroke="#95A5A6" stroke-width="2" stroke-dasharray="5,5"/>
  <text x="315" y="80" font-family="Arial" font-size="14" text-anchor="middle" font-weight="bold">CNN Backbone</text>
  
  <!-- ResBlock 1 -->
  <rect x="155" y="100" width="70" height="200" fill="#D5F5E3" stroke="#27AE60" stroke-width="2"/>
  <text x="190" y="190" font-family="Arial" font-size="12" text-anchor="middle">ResBlock</text>
  <text x="190" y="205" font-family="Arial" font-size="10" text-anchor="middle">1→32</text>
  <text x="190" y="310" font-family="Arial" font-size="10" text-anchor="middle">128×128×32</text>
  
  <!-- Skip connection for ResBlock 1 -->
  <path d="M175 130 C175 120, 205 120, 205 130" stroke="#27AE60" stroke-width="2" fill="none"/>
  <path d="M175 270 C175 280, 205 280, 205 270" stroke="#27AE60" stroke-width="2" fill="none"/>
  <line x1="175" y1="130" x2="175" y2="270" stroke="#27AE60" stroke-width="2"/>
  <line x1="205" y1="130" x2="205" y2="270" stroke="#27AE60" stroke-width="2"/>
  
  <!-- MaxPool 1 -->
  <rect x="240" y="125" width="35" height="150" fill="#FADBD8" stroke="#E74C3C" stroke-width="2"/>
  <text x="257" y="190" font-family="Arial" font-size="12" text-anchor="middle" transform="rotate(-90, 257, 190)">MaxPool 2×2</text>
  <text x="257" y="310" font-family="Arial" font-size="10" text-anchor="middle">64×64×32</text>
  
  <!-- ResBlock 2 -->
  <rect x="290" y="100" width="70" height="200" fill="#D5F5E3" stroke="#27AE60" stroke-width="2"/>
  <text x="325" y="190" font-family="Arial" font-size="12" text-anchor="middle">ResBlock</text>
  <text x="325" y="205" font-family="Arial" font-size="10" text-anchor="middle">32→64</text>
  <text x="325" y="310" font-family="Arial" font-size="10" text-anchor="middle">64×64×64</text>
  
  <!-- Skip connection for ResBlock 2 -->
  <path d="M310 130 C310 120, 340 120, 340 130" stroke="#27AE60" stroke-width="2" fill="none"/>
  <path d="M310 270 C310 280, 340 280, 340 270" stroke="#27AE60" stroke-width="2" fill="none"/>
  <line x1="310" y1="130" x2="310" y2="270" stroke="#27AE60" stroke-width="2"/>
  <line x1="340" y1="130" x2="340" y2="270" stroke="#27AE60" stroke-width="2"/>
  
  <!-- MaxPool 2 -->
  <rect x="375" y="125" width="35" height="150" fill="#FADBD8" stroke="#E74C3C" stroke-width="2"/>
  <text x="392" y="190" font-family="Arial" font-size="12" text-anchor="middle" transform="rotate(-90, 392, 190)">MaxPool 2×2</text>
  <text x="392" y="310" font-family="Arial" font-size="10" text-anchor="middle">32×32×64</text>
  
  <!-- ResBlock 3 -->
  <rect x="425" y="100" width="70" height="200" fill="#D5F5E3" stroke="#27AE60" stroke-width="2"/>
  <text x="460" y="190" font-family="Arial" font-size="12" text-anchor="middle">ResBlock</text>
  <text x="460" y="205" font-family="Arial" font-size="10" text-anchor="middle">64→128</text>
  <text x="460" y="310" font-family="Arial" font-size="10" text-anchor="middle">32×32×128</text>
  
  <!-- Skip connection for ResBlock 3 -->
  <path d="M445 130 C445 120, 475 120, 475 130" stroke="#27AE60" stroke-width="2" fill="none"/>
  <path d="M445 270 C445 280, 475 280, 475 270" stroke="#27AE60" stroke-width="2" fill="none"/>
  <line x1="445" y1="130" x2="445" y2="270" stroke="#27AE60" stroke-width="2"/>
  <line x1="475" y1="130" x2="475" y2="270" stroke="#27AE60" stroke-width="2"/>
  
  <!-- MaxPool 3 -->
  <rect x="510" y="125" width="35" height="150" fill="#FADBD8" stroke="#E74C3C" stroke-width="2"/>
  <text x="527" y="190" font-family="Arial" font-size="12" text-anchor="middle" transform="rotate(-90, 527, 190)">MaxPool 2×2</text>
  <text x="527" y="310" font-family="Arial" font-size="10" text-anchor="middle">16×16×128</text>
  
  <!-- Transformer Section -->
  <rect x="565" y="60" width="375" height="280" fill="none" stroke="#95A5A6" stroke-width="2" stroke-dasharray="5,5"/>
  <text x="752" y="80" font-family="Arial" font-size="14" text-anchor="middle" font-weight="bold">Transformer Encoder</text>
  
  <!-- Patch Embedding -->
  <rect x="580" y="100" width="60" height="200" fill="#E8DAEF" stroke="#8E44AD" stroke-width="2"/>
  <text x="610" y="190" font-family="Arial" font-size="12" text-anchor="middle" transform="rotate(-90, 610, 190)">Patch Embedding</text>
  <text x="610" y="310" font-family="Arial" font-size="10" text-anchor="middle">16→4×4 patches</text>
  
  <!-- Position Encoding -->
  <rect x="655" y="100" width="40" height="200" fill="#FCF3CF" stroke="#F1C40F" stroke-width="2"/>
  <text x="675" y="190" font-family="Arial" font-size="12" text-anchor="middle" transform="rotate(-90, 675, 190)">Position Encoding</text>
  <text x="675" y="310" font-family="Arial" font-size="10" text-anchor="middle">16×128</text>
  
  <!-- Transformer Encoder -->
  <rect x="710" y="100" width="90" height="200" fill="#D6EAF8" stroke="#3498DB" stroke-width="2"/>
  <text x="755" y="190" font-family="Arial" font-size="12" text-anchor="middle">Transformer</text>
  <text x="755" y="205" font-family="Arial" font-size="12" text-anchor="middle">Encoder</text>
  <text x="755" y="225" font-family="Arial" font-size="10" text-anchor="middle">2 Layers</text>
  <text x="755" y="240" font-family="Arial" font-size="10" text-anchor="middle">4 Heads</text>
  <text x="755" y="310" font-family="Arial" font-size="10" text-anchor="middle">16×128</text>
  
  <!-- Mean Pooling -->
  <rect x="815" y="125" width="35" height="150" fill="#FADBD8" stroke="#E74C3C" stroke-width="2"/>
  <text x="832" y="190" font-family="Arial" font-size="12" text-anchor="middle" transform="rotate(-90, 832, 190)">Mean Pooling</text>
  <text x="832" y="310" font-family="Arial" font-size="10" text-anchor="middle">128</text>
  
  <!-- Layer Norm -->
  <rect x="865" y="125" width="25" height="150" fill="#D5F5E3" stroke="#27AE60" stroke-width="2"/>
  <text x="877" y="190" font-family="Arial" font-size="12" text-anchor="middle" transform="rotate(-90, 877, 190)">LayerNorm</text>
  
  <!-- Dropout -->
  <rect x="905" y="125" width="25" height="150" fill="#FADBD8" stroke="#E74C3C" stroke-width="2"/>
  <text x="917" y="190" font-family="Arial" font-size="12" text-anchor="middle" transform="rotate(-90, 917, 190)">Dropout</text>
  <text x="917" y="205" font-family="Arial" font-size="10" text-anchor="middle" transform="rotate(-90, 917, 205)">p=0.4</text>
  
  <!-- Classification Head -->
  <rect x="945" y="125" width="40" height="150" fill="#D5F5E3" stroke="#27AE60" stroke-width="2"/>
  <text x="965" y="190" font-family="Arial" font-size="12" text-anchor="middle" transform="rotate(-90, 965, 190)">FC Layer</text>
  <text x="965" y="310" font-family="Arial" font-size="10" text-anchor="middle">3 classes</text>
  
  <!-- Connections -->
  <line x1="110" y1="200" x2="155" y2="200" stroke="black" stroke-width="2"/>
  <line x1="225" y1="200" x2="240" y2="200" stroke="black" stroke-width="2"/>
  <line x1="275" y1="200" x2="290" y2="200" stroke="black" stroke-width="2"/>
  <line x1="360" y1="200" x2="375" y2="200" stroke="black" stroke-width="2"/>
  <line x1="410" y1="200" x2="425" y2="200" stroke="black" stroke-width="2"/>
  <line x1="495" y1="200" x2="510" y2="200" stroke="black" stroke-width="2"/>
  <line x1="545" y1="200" x2="580" y2="200" stroke="black" stroke-width="2"/>
  <line x1="640" y1="200" x2="655" y2="200" stroke="black" stroke-width="2"/>
  <line x1="695" y1="200" x2="710" y2="200" stroke="black" stroke-width="2"/>
  <line x1="800" y1="200" x2="815" y2="200" stroke="black" stroke-width="2"/>
  <line x1="850" y1="200" x2="865" y2="200" stroke="black" stroke-width="2"/>
  <line x1="890" y1="200" x2="905" y2="200" stroke="black" stroke-width="2"/>
  <line x1="930" y1="200" x2="945" y2="200" stroke="black" stroke-width="2"/>
  
  <!-- Legend -->
  <rect x="355" y="355" width="15" height="15" fill="#D5F5E3" stroke="#27AE60" stroke-width="2"/>
  <text x="375" y="367" font-family="Arial" font-size="12" text-anchor="start">Convolutional/Linear Layers</text>
  
  <rect x="515" y="355" width="15" height="15" fill="#FADBD8" stroke="#E74C3C" stroke-width="2"/>
  <text x="535" y="367" font-family="Arial" font-size="12" text-anchor="start">Pooling/Dropout Layers</text>
  
  <rect x="675" y="355" width="15" height="15" fill="#D6EAF8" stroke="#3498DB" stroke-width="2"/>
  <text x="695" y="367" font-family="Arial" font-size="12" text-anchor="start">Transformer Components</text>
  
  <rect x="50" y="355" width="290" height="80" fill="none" stroke="#95A5A6" stroke-width="2"/>
  <text x="60" y="370" font-family="Arial" font-size="12" text-anchor="start">Input: 128×128×1 grayscale image</text>
  <text x="60" y="390" font-family="Arial" font-size="12" text-anchor="start">Backbone: 3 Residual Blocks with MaxPooling</text>
  <text x="60" y="410" font-family="Arial" font-size="12" text-anchor="start">Transformer: 2 layers, 4 attention heads</text>
  <text x="60" y="430" font-family="Arial" font-size="12" text-anchor="start">Output: 3 classes (numerosity classification)</text>
</svg>
